<mxfile host="app.diagrams.net" modified="2023-03-05T16:02:23.657Z" agent="5.0 (Macintosh; Intel Mac OS X 10_15_7) AppleWebKit/605.1.15 (KHTML, like Gecko) Version/16.1 Safari/605.1.15" etag="qsUHaJ1f59G9A9CwPblU" version="20.8.23" type="github">
  <diagram name="Page-1" id="dOfPmA-EBp4hy5qx1a14">
    <mxGraphModel dx="954" dy="647" grid="1" gridSize="10" guides="1" tooltips="1" connect="1" arrows="1" fold="1" page="1" pageScale="1" pageWidth="850" pageHeight="1100" math="0" shadow="0">
      <root>
        <mxCell id="0" />
        <mxCell id="1" parent="0" />
        <mxCell id="KrAAQIafe7M6fT-uM5EF-19" style="edgeStyle=orthogonalEdgeStyle;rounded=0;orthogonalLoop=1;jettySize=auto;html=1;" parent="1" source="BcO19bHWrh5v4rabgnsV-1" target="KrAAQIafe7M6fT-uM5EF-16" edge="1">
          <mxGeometry relative="1" as="geometry" />
        </mxCell>
        <mxCell id="BcO19bHWrh5v4rabgnsV-1" value="CardManager.cs&lt;br&gt;Initalize,&lt;br&gt;StartMove" style="rounded=0;whiteSpace=wrap;html=1;" parent="1" vertex="1">
          <mxGeometry x="760" y="40" width="160" height="100" as="geometry" />
        </mxCell>
        <mxCell id="KrAAQIafe7M6fT-uM5EF-9" style="edgeStyle=orthogonalEdgeStyle;rounded=0;orthogonalLoop=1;jettySize=auto;html=1;" parent="1" source="KrAAQIafe7M6fT-uM5EF-1" target="KrAAQIafe7M6fT-uM5EF-3" edge="1">
          <mxGeometry relative="1" as="geometry" />
        </mxCell>
        <mxCell id="KrAAQIafe7M6fT-uM5EF-1" value="CardStat.cs&lt;br&gt;enum board, move , unmove&lt;br&gt;throw when check to board card&amp;nbsp;" style="rounded=0;whiteSpace=wrap;html=1;" parent="1" vertex="1">
          <mxGeometry x="350" y="50" width="175" height="100" as="geometry" />
        </mxCell>
        <mxCell id="KrAAQIafe7M6fT-uM5EF-3" value="CardMovementController.cs" style="rounded=0;whiteSpace=wrap;html=1;" parent="1" vertex="1">
          <mxGeometry x="40" y="480" width="185" height="100" as="geometry" />
        </mxCell>
        <mxCell id="KrAAQIafe7M6fT-uM5EF-8" style="edgeStyle=orthogonalEdgeStyle;rounded=0;orthogonalLoop=1;jettySize=auto;html=1;entryX=1;entryY=0.5;entryDx=0;entryDy=0;" parent="1" source="KrAAQIafe7M6fT-uM5EF-5" target="KrAAQIafe7M6fT-uM5EF-3" edge="1">
          <mxGeometry relative="1" as="geometry" />
        </mxCell>
        <mxCell id="KrAAQIafe7M6fT-uM5EF-5" value="CardMovementControllerSettings.cs&lt;br&gt;Scriptable Data Container" style="rounded=0;whiteSpace=wrap;html=1;" parent="1" vertex="1">
          <mxGeometry x="320" y="200" width="210" height="110" as="geometry" />
        </mxCell>
        <mxCell id="KrAAQIafe7M6fT-uM5EF-14" style="edgeStyle=orthogonalEdgeStyle;rounded=0;orthogonalLoop=1;jettySize=auto;html=1;entryX=0.5;entryY=1;entryDx=0;entryDy=0;" parent="1" source="KrAAQIafe7M6fT-uM5EF-10" target="KrAAQIafe7M6fT-uM5EF-3" edge="1">
          <mxGeometry relative="1" as="geometry" />
        </mxCell>
        <mxCell id="KrAAQIafe7M6fT-uM5EF-17" style="edgeStyle=orthogonalEdgeStyle;rounded=0;orthogonalLoop=1;jettySize=auto;html=1;entryX=0.5;entryY=1;entryDx=0;entryDy=0;" parent="1" source="KrAAQIafe7M6fT-uM5EF-10" target="KrAAQIafe7M6fT-uM5EF-16" edge="1">
          <mxGeometry relative="1" as="geometry" />
        </mxCell>
        <mxCell id="KrAAQIafe7M6fT-uM5EF-10" value="CardTouchController.cs&lt;br&gt;when touched to card&amp;nbsp;&lt;br&gt;event-base =&amp;gt; touched" style="rounded=0;whiteSpace=wrap;html=1;" parent="1" vertex="1">
          <mxGeometry x="500" y="560" width="185" height="100" as="geometry" />
        </mxCell>
        <mxCell id="KrAAQIafe7M6fT-uM5EF-16" value="CardBoardManager.cs&lt;br&gt;masadaki kartların tümünün datası tutulacak&lt;br&gt;kartların kontrolu yapilacak&amp;nbsp;&lt;br&gt;gamestate tutulacak." style="rounded=0;whiteSpace=wrap;html=1;" parent="1" vertex="1">
          <mxGeometry x="747.5" y="250" width="185" height="100" as="geometry" />
        </mxCell>
      </root>
    </mxGraphModel>
  </diagram>
</mxfile>
